<?xml version="1.0" standalone="no"?>
<!DOCTYPE svg PUBLIC "-//W3C//DTD SVG 20010904//EN"
 "http://www.w3.org/TR/2001/REC-SVG-20010904/DTD/svg10.dtd">
<svg version="1.0" xmlns="http://www.w3.org/2000/svg"
 width="1079.000000pt" height="1079.000000pt" viewBox="0 0 1079.000000 1079.000000"
 preserveAspectRatio="xMidYMid meet">

<g transform="translate(0.000000,1079.000000) scale(0.100000,-0.100000)"
fill="#000000" stroke="none">
<path d="M5070 10779 c-1003 -59 -1971 -400 -2799 -987 -404 -286 -813 -677
-1127 -1077 -1186 -1508 -1471 -3558 -746 -5355 408 -1010 1160 -1914 2088
-2507 605 -386 1266 -645 1959 -767 173 -30 215 -36 215 -31 0 4 -54 117 -77
160 -22 43 -53 164 -59 235 -3 41 -8 89 -10 105 -2 17 -6 63 -9 103 -4 68 -2
76 20 98 29 29 59 31 92 4 14 -11 31 -20 38 -20 7 0 15 -9 18 -19 2 -10 16
-26 29 -35 52 -34 120 23 81 67 -16 17 -16 20 1 48 13 22 17 43 13 71 l-5 40
49 -4 c27 -3 57 -12 67 -22 10 -9 27 -16 38 -16 11 0 24 -4 29 -8 6 -5 35 -19
66 -31 31 -12 67 -33 80 -47 12 -13 41 -29 63 -35 23 -6 49 -18 59 -27 15 -13
22 -14 37 -4 23 14 57 16 64 3 4 -5 24 -12 45 -16 22 -4 42 -13 45 -20 4 -12
10 -11 36 2 26 12 50 14 122 8 50 -4 99 -12 109 -18 14 -9 21 -9 31 1 6 6 22
12 34 12 13 0 35 5 51 12 15 6 38 10 50 9 18 -2 24 5 33 38 11 40 33 57 62 46
9 -4 29 5 46 19 16 15 42 26 56 26 17 0 26 5 26 15 0 9 6 18 14 21 8 3 16 15
19 26 4 14 11 19 22 14 28 -10 50 95 25 120 -11 11 15 75 33 82 4 2 7 14 7 26
0 16 13 32 40 51 22 15 40 31 40 36 0 19 54 69 74 69 37 0 62 35 29 42 -14 2
-11 8 13 35 16 17 37 33 47 35 10 1 26 16 35 31 9 16 45 58 80 95 61 65 82
103 44 83 -10 -5 -24 -17 -32 -25 -7 -9 -19 -16 -27 -16 -8 0 -28 -10 -44 -22
-16 -13 -43 -34 -61 -48 -30 -23 -76 -44 -123 -56 -11 -3 -29 -10 -40 -14 -11
-5 -47 -11 -80 -14 -33 -3 -77 -8 -98 -11 -39 -7 -162 20 -174 38 -3 5 4 21
15 37 12 15 18 30 15 34 -11 11 -36 6 -54 -10 -15 -13 -36 -16 -111 -14 -136
5 -161 3 -174 -14 -13 -19 -35 -21 -32 -4 7 30 -113 36 -160 8 -22 -13 -38
-18 -45 -12 -7 5 -56 12 -110 15 -53 4 -106 11 -116 17 -25 13 -75 19 -231 28
-121 7 -127 8 -188 44 -34 21 -86 48 -115 62 -71 33 -213 180 -258 267 -10 21
-48 66 -84 101 -37 34 -74 77 -82 93 -9 17 -40 54 -69 83 -30 29 -54 62 -54
73 0 11 -10 23 -25 29 -32 12 -61 68 -47 91 12 19 6 29 -17 29 -16 0 -71 48
-71 63 0 5 -20 36 -45 69 -49 65 -197 355 -249 488 -19 47 -55 153 -81 235
-25 83 -52 168 -60 190 -7 22 -21 75 -29 118 -9 44 -18 82 -20 86 -3 4 -12 54
-21 111 -9 56 -25 121 -34 144 -11 24 -16 56 -13 77 2 20 -2 47 -9 60 -17 31
-29 96 -35 188 -3 41 -9 82 -15 93 -7 12 -6 31 2 58 9 29 9 46 1 67 -6 15 -14
100 -17 188 -3 88 -11 205 -16 260 -14 129 -13 374 1 495 25 219 109 496 176
585 19 24 34 48 34 54 0 15 34 31 64 31 16 0 26 6 26 14 0 22 -19 30 -36 15
-8 -6 -17 -9 -21 -6 -19 20 138 103 165 88 9 -5 27 -5 44 1 28 10 61 8 148
-10 25 -5 37 -10 28 -11 -9 0 -21 -8 -26 -16 -10 -19 -20 -20 -141 -10 -77 6
-93 5 -89 -6 3 -8 20 -17 39 -21 19 -4 59 -12 89 -18 53 -11 100 -41 100 -65
0 -6 -13 -23 -28 -38 -25 -24 -33 -26 -75 -21 -26 4 -50 11 -53 15 -3 5 -12 9
-20 9 -18 0 -19 -50 -2 -97 9 -26 9 -36 0 -45 -9 -9 -12 -9 -12 0 0 7 -7 12
-15 12 -8 0 -15 5 -15 10 0 6 -13 10 -30 10 -36 0 -41 -25 -7 -34 22 -6 22 -7
2 -21 -17 -13 -19 -28 -20 -124 0 -79 3 -107 12 -104 6 3 19 -7 28 -21 10 -14
23 -26 30 -26 6 0 32 -15 56 -34 41 -32 50 -34 149 -41 58 -4 148 -7 201 -6
62 1 111 -4 138 -14 30 -10 49 -12 67 -5 14 6 36 7 50 4 34 -9 30 -1 -17 30
-22 15 -38 30 -35 33 3 3 13 0 21 -7 19 -16 198 -20 259 -6 36 8 38 8 32 -11
-9 -30 11 -34 101 -21 43 6 120 13 170 15 89 4 94 3 118 -21 14 -14 28 -26 30
-26 3 0 5 18 5 40 0 37 2 40 38 49 20 6 52 11 70 11 18 0 46 7 63 16 16 8 39
12 50 9 12 -4 20 -1 23 7 10 39 42 126 53 148 7 14 13 35 13 48 0 12 9 40 19
61 11 21 17 48 14 60 -3 11 0 33 6 49 17 41 20 144 6 186 -20 57 -52 86 -96
86 -35 0 -168 49 -197 73 -8 6 -63 14 -123 18 -60 4 -115 12 -122 17 -7 6 -43
12 -82 15 -38 3 -83 8 -100 11 -16 4 -55 12 -85 18 -30 6 -61 16 -67 21 -7 5
-33 6 -58 2 -36 -5 -53 -2 -78 13 -33 20 -65 21 -168 7 -52 -7 -58 -6 -68 14
-17 31 -107 30 -156 -2 -19 -12 -35 -28 -35 -34 0 -21 -68 -16 -79 6 -10 18
-13 18 -81 -5 -103 -33 -189 -89 -197 -125 -3 -16 -10 -32 -14 -35 -15 -9 -10
91 6 130 9 20 23 71 31 113 15 72 55 151 116 232 10 13 18 30 18 38 0 8 14 35
30 60 17 24 30 55 30 69 0 17 8 27 25 34 14 5 25 16 25 24 0 8 18 34 40 57 22
23 40 46 40 50 0 22 63 68 102 74 58 10 73 19 87 52 8 19 28 36 60 51 56 25
84 28 100 8 8 -9 24 -12 50 -9 24 3 49 -1 69 -11 17 -9 48 -16 69 -16 21 0 63
-7 93 -16 30 -9 68 -16 83 -16 15 1 45 -8 66 -19 32 -16 55 -19 142 -17 73 1
110 -2 125 -12 18 -11 25 -11 45 3 17 12 45 17 101 17 42 0 80 5 83 10 3 6 14
10 24 10 10 0 24 7 31 15 7 8 29 15 50 15 20 0 57 3 82 6 40 6 46 10 57 40 9
24 18 34 34 34 12 0 45 0 73 0 44 0 53 4 64 25 10 19 22 25 58 27 28 2 47 8
50 17 4 11 -4 13 -35 9 -22 -3 -46 -2 -54 2 -24 15 9 39 59 42 35 2 46 7 44
17 -3 14 9 47 29 81 10 17 14 27 22 52 4 11 22 19 54 24 26 3 63 13 82 20 18
8 51 14 72 14 21 0 62 10 91 21 29 12 71 26 93 31 22 5 54 20 72 34 32 24 35
25 95 13 35 -6 74 -18 86 -26 61 -38 207 -52 235 -24 14 14 67 15 67 1 0 -15
62 -81 84 -90 60 -22 71 -23 59 -8 -23 27 0 29 29 1 20 -19 28 -37 28 -60 0
-36 19 -45 27 -13 12 44 79 11 103 -51 11 -29 22 -43 31 -40 53 14 59 13 69
-13 7 -20 16 -26 39 -26 20 0 34 -7 41 -20 6 -11 15 -18 21 -15 5 4 22 -8 38
-25 25 -28 33 -31 61 -25 32 7 90 -10 90 -26 0 -5 13 -23 30 -41 16 -18 35
-40 42 -48 14 -17 38 -79 38 -100 0 -7 7 -18 15 -24 9 -6 18 -29 22 -51 3 -22
19 -59 35 -82 15 -23 28 -48 28 -55 0 -8 5 -19 11 -25 13 -13 3 -73 -12 -73
-5 0 -9 -7 -9 -15 0 -8 5 -15 11 -15 5 0 15 -13 20 -30 6 -16 15 -30 20 -30
12 0 0 -78 -19 -114 -11 -23 -13 -48 -8 -110 9 -107 26 -209 37 -221 5 -5 9
-17 9 -28 0 -10 9 -46 19 -80 28 -89 38 -140 58 -284 24 -180 25 -671 1 -828
-9 -60 -19 -130 -23 -155 -3 -25 -14 -119 -25 -210 -11 -91 -27 -194 -35 -230
-68 -298 -90 -468 -74 -576 16 -109 10 -136 -85 -404 -13 -36 -37 -96 -54
-135 -17 -38 -44 -115 -61 -170 -36 -120 -54 -170 -75 -210 -9 -16 -16 -35
-16 -41 0 -18 -32 -89 -154 -343 -32 -68 -32 -86 -1 -163 45 -111 54 -172 60
-393 2 -115 0 -239 -5 -275 -6 -36 -11 -99 -13 -140 -4 -81 -51 -286 -72 -310
-8 -10 -16 -89 -23 -252 -6 -131 -14 -243 -18 -250 -4 -7 -7 -86 -6 -175 l1
-163 -31 -45 c-17 -25 -29 -47 -27 -50 7 -6 166 48 319 108 452 178 938 457
1325 761 401 315 790 722 1077 1127 464 654 776 1396 912 2169 65 369 71 445
71 955 0 431 -2 484 -23 640 -79 593 -216 1086 -442 1585 -427 942 -1130 1754
-2006 2317 -956 615 -2087 909 -3234 842z m-980 -4445 c0 -8 -4 -13 -10 -9 -5
3 -26 -1 -46 -10 -20 -8 -45 -15 -56 -15 -11 0 -26 -13 -36 -30 -19 -33 -52
-40 -72 -15 -10 12 -10 15 1 15 8 0 20 9 26 20 11 16 10 18 -3 13 -14 -5 -15
-3 -5 14 9 17 18 20 53 16 24 -3 54 0 68 6 39 16 80 13 80 -5z m-470 -74 c0
-5 -5 -10 -11 -10 -5 0 -7 5 -4 10 3 6 8 10 11 10 2 0 4 -4 4 -10z m660 -280
c0 -12 7 -20 17 -20 9 0 14 -3 11 -6 -13 -12 -76 8 -81 27 -4 15 0 19 24 19
22 0 29 -5 29 -20z m120 -16 c0 -14 -3 -14 -15 -4 -8 7 -15 14 -15 16 0 2 7 4
15 4 8 0 15 -7 15 -16z m310 -364 c0 -38 -1 -40 -31 -40 -31 0 -31 0 -15 23 9
12 19 30 23 40 10 31 23 18 23 -23z m-498 -102 c-9 -9 -15 -9 -24 0 -9 9 -7
12 12 12 19 0 21 -3 12 -12z m-21 -3472 c24 -28 52 -58 62 -68 9 -10 17 -21
17 -25 0 -5 27 -36 60 -71 34 -35 71 -80 84 -100 13 -20 33 -46 45 -56 11 -11
21 -24 21 -30 0 -7 9 -19 19 -28 11 -9 25 -36 31 -60 11 -41 39 -78 59 -78 17
0 21 -32 5 -45 -12 -9 -14 -16 -7 -31 19 -36 32 -86 26 -100 -3 -8 -19 -22
-36 -30 -56 -30 -207 -2 -207 38 0 5 -16 31 -35 59 -19 28 -35 58 -35 66 0 9
-9 32 -20 52 -18 34 -38 101 -94 311 -13 47 -28 94 -34 105 -13 24 -32 105
-32 135 0 27 14 19 71 -44z"/>
<path d="M5964 7125 c-7 -17 12 -45 31 -45 19 0 36 25 29 44 -8 20 -53 21 -60
1z"/>
<path d="M7661 6774 c0 -11 3 -14 6 -6 3 7 2 16 -1 19 -3 4 -6 -2 -5 -13z"/>
<path d="M7190 6415 c0 -10 88 -55 107 -55 11 0 37 -7 56 -15 42 -17 47 -18
47 -7 0 10 -71 42 -146 66 -55 17 -64 19 -64 11z"/>
<path d="M6585 6389 c-88 -5 -188 -10 -222 -11 -51 -3 -67 -8 -90 -30 -15 -14
-55 -40 -87 -57 -33 -17 -64 -35 -70 -40 -11 -8 -34 -14 -134 -31 -55 -9 -82
-24 -82 -44 0 -7 -14 -25 -30 -41 -65 -62 -79 -141 -35 -193 38 -45 55 -95 55
-160 0 -44 5 -63 18 -75 10 -10 23 -17 28 -17 5 0 20 -25 34 -55 24 -53 26
-55 65 -55 32 0 42 5 50 22 11 24 62 45 75 32 4 -5 1 -33 -6 -63 -10 -37 -11
-58 -4 -65 14 -14 152 -30 230 -26 105 5 190 4 274 -4 58 -5 90 -3 125 8 38
13 54 13 93 3 26 -7 54 -21 61 -30 11 -16 21 -17 103 -7 50 6 146 10 214 8
l123 -3 19 35 c11 19 24 37 29 38 5 2 28 31 50 64 34 50 40 65 35 91 -4 18
-10 50 -14 72 -6 30 -12 39 -25 37 -11 -2 -21 7 -28 25 -13 35 -47 72 -75 83
-28 11 -56 64 -41 79 7 7 6 15 -2 25 -8 9 -8 16 -2 20 6 4 8 13 4 21 -4 11 3
15 28 15 46 1 73 37 61 82 -7 28 -14 33 -62 46 -30 7 -73 16 -95 19 -22 3 -44
9 -50 13 -5 4 -25 11 -42 15 -18 3 -39 14 -45 23 -14 18 -120 72 -142 72 -7 0
-19 7 -26 15 -7 8 -33 24 -58 35 -48 22 -53 22 -307 9z m665 -225 c0 -2 -7 -4
-15 -4 -8 0 -15 4 -15 10 0 5 7 7 15 4 8 -4 15 -8 15 -10z"/>
<path d="M7120 6346 c0 -23 28 -45 68 -52 20 -4 46 -11 57 -17 19 -10 94 -12
103 -2 12 12 -24 35 -54 35 -18 0 -36 5 -39 10 -3 6 -21 10 -38 10 -18 0 -41
7 -51 15 -25 19 -46 19 -46 1z"/>
<path d="M7457 6272 c-23 -25 -22 -34 13 -67 34 -33 45 -82 12 -52 -22 20 -52
22 -52 5 0 -7 16 -24 35 -37 19 -13 35 -27 35 -32 0 -5 5 -9 10 -9 6 0 10 13
10 29 0 24 4 28 19 24 11 -3 29 -16 42 -29 27 -29 45 -30 58 -6 15 27 -20 91
-79 146 -53 50 -78 56 -103 28z"/>
<path d="M4392 5452 c-17 -11 31 -34 53 -26 19 8 19 20 -1 28 -21 8 -36 7 -52
-2z"/>
<path d="M4488 5443 c6 -2 18 -2 25 0 6 3 1 5 -13 5 -14 0 -19 -2 -12 -5z"/>
<path d="M6538 5443 c-29 -4 -36 -17 -17 -29 22 -13 231 -15 247 -2 12 11 10
14 -14 24 -23 10 -34 9 -57 -2 -18 -10 -33 -12 -45 -6 -23 13 -81 20 -114 15z"/>
<path d="M4350 5374 c0 -9 5 -14 12 -12 18 6 21 28 4 28 -9 0 -16 -7 -16 -16z"/>
<path d="M4458 5353 c7 -3 16 -2 19 1 4 3 -2 6 -13 5 -11 0 -14 -3 -6 -6z"/>
<path d="M6237 5114 c-11 -11 6 -79 26 -101 20 -23 57 -31 57 -14 0 16 -32 86
-48 104 -16 18 -25 21 -35 11z"/>
<path d="M6160 4671 c0 -6 5 -13 10 -16 6 -3 10 1 10 9 0 9 -4 16 -10 16 -5 0
-10 -4 -10 -9z"/>
<path d="M5055 4031 c-67 -24 -135 -59 -135 -70 0 -21 146 -198 194 -234 26
-21 36 -36 36 -56 0 -24 6 -31 44 -45 23 -9 50 -14 59 -10 25 9 50 -11 62 -51
5 -21 17 -41 25 -45 8 -5 50 -25 92 -46 61 -30 75 -41 66 -51 -17 -20 -4 -26
68 -30 36 -2 74 -8 85 -13 14 -8 28 -6 58 9 55 28 67 71 20 71 -17 0 -20 6
-17 33 3 27 6 32 28 29 19 -2 22 0 12 10 -19 19 -14 35 23 77 19 21 35 45 35
54 0 15 48 37 81 37 42 0 197 77 232 115 37 39 87 115 87 131 0 7 -22 26 -50
43 -42 26 -59 30 -122 31 -85 2 -195 -24 -221 -51 -10 -10 -30 -25 -46 -34
-16 -8 -31 -21 -34 -28 -9 -23 -67 -26 -124 -6 -31 12 -80 19 -121 19 -70 0
-132 15 -132 31 0 5 -35 27 -79 48 -97 49 -157 58 -226 32z m803 -143 c-30
-53 -51 -63 -36 -16 6 18 12 39 14 46 2 6 13 12 24 12 l21 0 -23 -42z"/>
<path d="M5150 3118 c-19 -5 -64 -16 -100 -23 -36 -8 -85 -19 -110 -26 -25 -6
-75 -12 -113 -14 -44 -1 -73 -7 -85 -18 -12 -11 -44 -16 -113 -19 -89 -3 -98
-5 -118 -28 -45 -55 -18 -100 62 -100 29 0 86 -7 127 -15 71 -14 260 -30 325
-27 73 4 140 0 150 -8 5 -4 33 -13 60 -19 28 -5 86 -17 130 -26 44 -9 84 -20
90 -25 5 -4 87 -11 182 -15 163 -7 174 -7 213 14 22 11 49 21 58 21 10 0 33
11 52 25 19 14 45 25 59 25 41 0 71 11 71 26 0 22 44 27 194 20 142 -7 143 -7
181 18 21 14 52 26 69 27 43 1 109 22 113 36 3 7 -19 24 -48 39 -46 23 -61 26
-113 21 -41 -4 -74 -1 -101 8 -22 8 -55 15 -73 15 -32 0 -151 29 -206 50 -48
18 -195 12 -267 -10 -93 -30 -120 -38 -156 -45 -18 -4 -33 -11 -33 -16 0 -15
-73 -10 -105 7 -45 24 -146 54 -180 54 -17 0 -37 6 -43 12 -7 7 -26 13 -42 14
-16 1 -44 4 -62 7 -18 3 -49 1 -68 -5z"/>
<path d="M6332 2818 c-17 -17 -15 -45 4 -52 22 -9 44 11 44 40 0 26 -27 33
-48 12z"/>
<path d="M6200 2715 c-21 -25 2 -42 36 -26 21 9 24 14 14 26 -16 19 -34 19
-50 0z"/>
<path d="M4100 2668 c-12 -23 -34 -53 -49 -67 -27 -25 -28 -29 -20 -91 6 -54
12 -68 36 -87 15 -13 34 -23 40 -23 7 0 18 -9 25 -19 7 -11 18 -17 27 -13 10
4 13 1 8 -11 -5 -13 -1 -17 15 -17 11 0 38 -16 59 -35 22 -19 45 -35 52 -35 6
0 30 -14 51 -30 22 -17 49 -30 61 -30 11 0 26 -5 32 -11 14 -14 89 -54 250
-134 128 -64 133 -64 403 -51 110 6 155 13 188 27 51 23 86 17 77 -12 -9 -27
9 -23 42 9 25 25 40 30 128 41 55 7 123 18 150 26 28 7 93 17 145 20 80 5 100
3 130 -12 30 -15 61 -18 205 -19 157 -1 172 1 198 20 75 56 95 78 99 106 6 38
-2 44 -36 27 -14 -8 -39 -12 -56 -9 -27 4 -30 8 -30 38 0 28 5 35 25 40 27 7
32 18 14 30 -6 3 -15 0 -20 -7 -5 -9 -10 0 -15 30 -7 42 -8 43 -38 37 -17 -3
-53 -7 -81 -8 -55 -3 -52 -8 -41 72 l4 35 -138 1 c-107 2 -144 5 -160 17 -16
11 -29 13 -45 7 -16 -6 -29 -4 -44 6 -15 11 -37 13 -78 10 -68 -6 -137 -8
-210 -7 -40 1 -53 5 -53 16 0 8 -4 15 -10 15 -5 0 -7 -6 -4 -14 4 -10 -9 -16
-48 -22 -29 -4 -60 -7 -68 -6 -24 3 -193 13 -215 13 -11 -1 -30 4 -43 11 -28
14 -70 1 -86 -27 -6 -10 -22 -31 -36 -47 -23 -25 -29 -26 -63 -19 -20 5 -46 7
-57 4 -11 -3 -20 0 -20 6 0 6 -9 11 -21 11 -15 0 -19 -5 -15 -15 6 -17 -19
-21 -29 -5 -5 8 -11 8 -20 0 -9 -7 -21 -7 -39 0 -33 12 -123 13 -130 1 -3 -5
-22 -12 -42 -16 -20 -3 -43 -13 -51 -20 -19 -19 -58 -4 -100 38 -17 18 -55 54
-82 81 -28 26 -49 52 -46 56 7 12 -18 84 -35 97 -8 7 -27 13 -41 13 -22 0 -31
-9 -49 -42z m2220 -418 c0 -5 -9 -10 -21 -10 -11 0 -17 5 -14 10 3 6 13 10 21
10 8 0 14 -4 14 -10z"/>
<path d="M6090 2681 c-8 -15 -8 -27 0 -42 16 -29 35 -18 35 21 0 39 -19 50
-35 21z"/>
<path d="M7019 2634 c-12 -14 -11 -16 5 -13 11 2 21 10 24 17 5 17 -13 15 -29
-4z"/>
<path d="M5293 1564 c-5 -14 11 -34 27 -34 9 1 44 30 39 33 -2 3 -16 7 -32 11
-20 5 -29 2 -34 -10z"/>
</g>
</svg>
